<svg width="50" height="46" viewBox="0 0 50 46" fill="none" xmlns="http://www.w3.org/2000/svg">
<path fill-rule="evenodd" clip-rule="evenodd" d="M25 45.5015L27.7864 43.0015H50V44.2515C44.9077 45.0897 39.755 45.5077 34.5942 45.5015H25ZM0.0135002 0.501465L2.44038 23.0015L4.90662 22.5564L2.79775 3.00146H37.2025L34.5395 27.69C34.4828 28.2223 34.3778 28.7447 34.2274 29.2515L36.3934 30.6478C36.7112 29.7869 36.9249 28.8841 37.0247 27.958L37.29 25.5015H38.292C40.7592 25.5015 43.1393 24.5895 44.9748 22.9407C46.81 21.292 47.9712 19.023 48.2347 16.57L48.681 12.42C48.7748 11.5478 48.684 10.6657 48.4145 9.83099C48.145 8.99627 47.7027 8.22761 47.1165 7.57504C46.5305 6.92247 45.8135 6.40059 45.0125 6.04334C44.2112 5.68607 43.344 5.50144 42.4668 5.50146H39.4473L39.9865 0.501465H0.0135002ZM39.1775 8.00146H42.4668C42.993 8.00149 43.5132 8.11224 43.9938 8.32652C44.4745 8.54082 44.9045 8.85384 45.2563 9.24527C45.6078 9.63669 45.8732 10.0977 46.035 10.5984C46.1968 11.0991 46.2515 11.6283 46.1953 12.1515L45.75 16.303C45.555 18.144 44.6847 19.8475 43.3075 21.0845C41.9302 22.3217 40.1432 23.0045 38.292 23.0015H37.5595L39.1775 8.00146Z" fill="#FEC110"/>
</svg>
